<svg width="20" height="20" viewBox="0 0 20 20" fill="none" xmlns="http://www.w3.org/2000/svg">
  <g id="calendar--heat-map">
    <path id="Vector" d="M16.249 2.50012H13.749V1.25012H12.499V2.50012H7.49902V1.25012H6.24902V2.50012H3.74902C3.41763 2.50054 3.09993 2.63236 2.8656 2.8667C2.63127 3.10103 2.49944 3.41873 2.49902 3.75012V16.2501C2.49944 16.5815 2.63127 16.8992 2.8656 17.1335C3.09993 17.3679 3.41763 17.4997 3.74902 17.5001H16.249C16.5804 17.4997 16.8981 17.3679 17.1324 17.1335C17.3668 16.8992 17.4986 16.5815 17.499 16.2501V3.75012C17.4986 3.41873 17.3668 3.10103 17.1324 2.8667C16.8981 2.63236 16.5804 2.50054 16.249 2.50012ZM3.74902 3.75012H6.24902V5.00012H7.49902V3.75012H12.499V5.00012H13.749V3.75012H16.249V6.25012H3.74902V3.75012ZM3.74902 7.50012H6.87402V11.2501H3.74902V7.50012ZM11.874 16.2501H8.12402V12.5001H11.874V16.2501ZM11.874 11.2501H8.12402V7.50012H11.874V11.2501ZM13.124 16.2501V12.5001H16.249L16.2498 16.2501H13.124Z"/>
  </g>
</svg>
