<svg width="16" height="16" viewBox="0 0 16 16" fill="none" xmlns="http://www.w3.org/2000/svg">
  <g id="cloud--download">
    <path id="Vector" fill-rule="evenodd" clip-rule="evenodd" d="M11.4999 11H11.7499C12.5517 10.995 13.3233 10.6937 13.9164 10.1541C14.5095 9.6145 14.8822 8.87472 14.9629 8.07697C15.0435 7.27922 14.8264 6.47982 14.3533 5.83246C13.8802 5.1851 13.1845 4.73547 12.3999 4.57003C12.1841 3.56329 11.6295 2.66102 10.8288 2.01376C10.028 1.36651 9.02955 1.01343 7.99993 1.01343C6.97031 1.01343 5.97183 1.36651 5.17109 2.01376C4.37035 2.66102 3.81578 3.56329 3.59993 4.57003C2.81537 4.73547 2.11966 5.1851 1.64656 5.83246C1.17345 6.47982 0.956351 7.27922 1.03699 8.07697C1.11764 8.87472 1.49033 9.6145 2.08342 10.1541C2.67651 10.6937 3.44813 10.995 4.24993 11H4.49993V10H4.24993C3.65319 10.0239 3.07141 9.80974 2.63258 9.40466C2.19374 8.99958 1.9338 8.43677 1.90993 7.84003C1.88606 7.24329 2.10022 6.66151 2.5053 6.22268C2.91038 5.78384 3.47319 5.5239 4.06993 5.50003H4.49993L4.50993 5.09003C4.62086 4.24825 5.034 3.4755 5.67238 2.91572C6.31077 2.35594 7.13088 2.0473 7.97993 2.0473C8.82898 2.0473 9.64909 2.35594 10.2875 2.91572C10.9259 3.4755 11.339 4.24825 11.4499 5.09003L11.4999 5.50003H11.9299C12.5267 5.5239 13.0895 5.78384 13.4946 6.22268C13.8996 6.66151 14.1138 7.24329 14.0899 7.84003C14.0661 8.43677 13.8061 8.99958 13.3673 9.40466C12.9284 9.80974 12.3467 10.0239 11.7499 10H11.4999V11ZM8.49992 7.00003V13.085L9.79492 11.795L10.4999 12.5L7.99992 15L5.49992 12.5L6.20492 11.795L7.49992 13.085V7.00003H8.49992Z"/>
  </g>
</svg>
