<svg width="40" height="40" viewBox="0 0 40 40"  xmlns="http://www.w3.org/2000/svg">
<g id="crossroads">
<path id="Vector" d="M33.2325 8.2325C33.001 7.99959 32.7256 7.81493 32.4222 7.68922C32.1188 7.5635 31.7934 7.49923 31.465 7.50012H21.2502V2.50012H18.7502V15.0001H8.53528C8.20687 14.9992 7.88155 15.0635 7.57815 15.1892C7.27475 15.3149 6.99931 15.4996 6.76778 15.7325L2.50015 20.0001L6.76778 24.2677C6.99931 24.5007 7.27475 24.6853 7.57815 24.811C7.88155 24.9367 8.20687 25.001 8.53528 25.0001H18.7502V37.5001H21.2502V17.5001H31.465C31.7934 17.501 32.1188 17.4367 32.4222 17.311C32.7256 17.1853 33.001 17.0007 33.2325 16.7677L37.5002 12.5001L33.2325 8.2325ZM8.53528 22.5001L6.03528 20.0001L8.53528 17.5001H18.7502V22.5001H8.53528ZM31.465 15.0001H21.2502V10.0001H31.465L33.965 12.5001L31.465 15.0001Z" />
</g>
</svg>
