<svg width="30" height="30" viewBox="0 0 30 30" fill="inherit" xmlns="http://www.w3.org/2000/svg">
  <g id="locked">
    <path id="Vector" d="M22.25 13.1875H20.4375V7.75C20.4375 6.30789 19.8646 4.92484 18.8449 3.90511C17.8252 2.88538 16.4421 2.3125 15 2.3125C13.5579 2.3125 12.1748 2.88538 11.1551 3.90511C10.1354 4.92484 9.5625 6.30789 9.5625 7.75V13.1875H7.75C7.2693 13.1875 6.80828 13.3785 6.46837 13.7184C6.12846 14.0583 5.9375 14.5193 5.9375 15V25.875C5.9375 26.3557 6.12846 26.8167 6.46837 27.1566C6.80828 27.4965 7.2693 27.6875 7.75 27.6875H22.25C22.7307 27.6875 23.1917 27.4965 23.5316 27.1566C23.8715 26.8167 24.0625 26.3557 24.0625 25.875V15C24.0625 14.5193 23.8715 14.0583 23.5316 13.7184C23.1917 13.3785 22.7307 13.1875 22.25 13.1875ZM11.375 7.75C11.375 6.78859 11.7569 5.86656 12.4367 5.18674C13.1166 4.50692 14.0386 4.125 15 4.125C15.9614 4.125 16.8834 4.50692 17.5633 5.18674C18.2431 5.86656 18.625 6.78859 18.625 7.75V13.1875H11.375V7.75ZM22.25 25.875H7.75V15H22.25V25.875Z" />
  </g>
</svg>
