<svg width="16" height="17" viewBox="0 0 16 17" fill="none" xmlns="http://www.w3.org/2000/svg">
<g id="logout">
<path id="Vector" fill-rule="evenodd" clip-rule="evenodd" d="M9 15.5H3C2.73488 15.4997 2.4807 15.3942 2.29323 15.2068C2.10576 15.0193 2.0003 14.7651 2 14.5V2.5C2.0003 2.23488 2.10576 1.9807 2.29323 1.79323C2.4807 1.60576 2.73488 1.5003 3 1.5H9C9.26512 1.5003 9.5193 1.60576 9.70677 1.79323C9.89424 1.9807 9.9997 2.23488 10 2.5V4H9V2.5H3V14.5H9V13H10V14.5C9.9997 14.7651 9.89424 15.0193 9.70677 15.2068C9.5193 15.3942 9.26512 15.4997 9 15.5ZM12.086 9L10.293 10.793L11 11.5L14 8.5L11 5.5L10.293 6.207L12.086 8H5V9H12.086Z" />
</g>
</svg>
