<svg width="16" height="16" viewBox="0 0 16 16" fill="none" xmlns="http://www.w3.org/2000/svg">
  <g id="link">
    <path id="Vector" fill-rule="evenodd" clip-rule="evenodd" d="M13.6504 2.72704C14.0151 2.87846 14.3463 3.10037 14.625 3.38005C15.1881 3.94122 15.5055 4.70297 15.5073 5.49798C15.5092 6.29298 15.1955 7.05622 14.635 7.62005L10.635 11.62C10.3549 11.9005 10.022 12.1227 9.65555 12.2737C9.28909 12.4247 8.89634 12.5017 8.49998 12.5C7.70502 12.5047 6.94073 12.1935 6.37498 11.635C6.0953 11.3563 5.87339 11.0252 5.72197 10.6605C5.57056 10.2958 5.49261 9.90489 5.49261 9.51005C5.49261 9.1152 5.57056 8.72424 5.72197 8.35959C5.87339 7.99493 6.0953 7.66376 6.37498 7.38505L7.08498 6.67505L7.78998 7.38505L7.08498 8.09505C6.7097 8.47099 6.49913 8.98062 6.4996 9.51181C6.50007 10.043 6.71154 10.5523 7.08748 10.9275C7.46343 11.3028 7.97305 11.5134 8.50425 11.5129C9.03545 11.5125 9.5447 11.301 9.91998 10.925L13.92 6.92505C14.1061 6.7389 14.2538 6.51791 14.3545 6.27469C14.4553 6.03148 14.5071 5.7708 14.5071 5.50755C14.5071 5.24429 14.4553 4.98362 14.3545 4.7404C14.2538 4.49719 14.1061 4.27619 13.92 4.09005C13.7338 3.9039 13.5128 3.75624 13.2696 3.65549C13.0264 3.55475 12.7657 3.5029 12.5025 3.5029C12.2392 3.5029 11.9786 3.55475 11.7353 3.65549C11.4921 3.75624 11.2711 3.9039 11.085 4.09005L10.375 3.38005C10.6537 3.10037 10.9849 2.87846 11.3495 2.72704C11.7142 2.57562 12.1051 2.49768 12.5 2.49768C12.8948 2.49768 13.2858 2.57562 13.6504 2.72704ZM1.65904 11.76C1.76013 12.0033 1.90828 12.2242 2.09498 12.41C2.28082 12.5967 2.50171 12.7449 2.74497 12.846C2.98823 12.9471 3.24906 12.9991 3.51248 12.9991C3.77591 12.9991 4.03674 12.9471 4.28 12.846C4.52326 12.7449 4.74415 12.5967 4.92998 12.41L5.63998 13.12C5.07084 13.6844 4.30154 14.0008 3.49998 14C2.70543 14.01 1.9394 13.7043 1.36998 13.15C1.08955 12.8712 0.867007 12.5397 0.715146 12.1746C0.563286 11.8095 0.485107 11.418 0.485107 11.0225C0.485107 10.6271 0.563286 10.2356 0.715146 9.87044C0.867007 9.50532 1.08955 9.17383 1.36998 8.89503L5.36998 4.89503C5.93423 4.33079 6.69952 4.01379 7.49748 4.01379C8.29545 4.01379 9.06074 4.33079 9.62498 4.89503C10.1892 5.45928 10.5062 6.22457 10.5062 7.02253C10.5062 7.8205 10.1892 8.58578 9.62498 9.15003L8.56498 10.21L7.85498 9.50003L8.91498 8.42503C9.10185 8.23797 9.24977 8.01571 9.35018 7.77111C9.45059 7.52652 9.50151 7.26444 9.49998 7.00003C9.50516 6.73645 9.45737 6.47452 9.35946 6.22974C9.26155 5.98497 9.11551 5.76233 8.92999 5.57503C8.74415 5.38833 8.52326 5.24018 8.28 5.13909C8.03674 5.03799 7.77591 4.98595 7.51248 4.98595C7.24906 4.98595 6.98823 5.03799 6.74497 5.13909C6.50171 5.24018 6.28082 5.38833 6.09498 5.57503L2.09498 9.57503C1.90828 9.76087 1.76013 9.98176 1.65904 10.225C1.55794 10.4683 1.5059 10.7291 1.5059 10.9925C1.5059 11.256 1.55794 11.5168 1.65904 11.76Z" />
  </g>
</svg>
