<svg width="30" height="30" viewBox="0 0 30 30" fill="none" xmlns="http://www.w3.org/2000/svg">
  <g id="play--outline">
    <path id="Vector" fill-rule="evenodd" clip-rule="evenodd" d="M21.0418 5.95777C19.2534 4.76281 17.1509 4.125 15 4.125C12.1158 4.125 9.34968 5.27076 7.31022 7.31021C5.27076 9.34967 4.12501 12.1158 4.12501 15C4.12501 17.1509 4.76281 19.2534 5.95777 21.0418C7.15273 22.8302 8.85118 24.2241 10.8383 25.0472C12.8255 25.8703 15.0121 26.0857 17.1216 25.666C19.2312 25.2464 21.1689 24.2107 22.6898 22.6898C24.2107 21.1689 25.2464 19.2311 25.666 17.1216C26.0857 15.0121 25.8703 12.8255 25.0472 10.8383C24.2241 8.85117 22.8302 7.15273 21.0418 5.95777ZM7.95121 4.45073C10.0377 3.05661 12.4907 2.3125 15 2.3125C18.3649 2.3125 21.5921 3.64921 23.9714 6.02858C26.3508 8.40795 27.6875 11.6351 27.6875 15C27.6875 17.5094 26.9434 19.9623 25.5493 22.0488C24.1552 24.1352 22.1736 25.7614 19.8553 26.7217C17.537 27.682 14.9859 27.9333 12.5248 27.4437C10.0637 26.9542 7.80297 25.7458 6.02859 23.9714C4.25421 22.197 3.04584 19.9363 2.55629 17.4752C2.06674 15.0141 2.318 12.463 3.27828 10.1447C4.23857 7.82637 5.86476 5.84485 7.95121 4.45073ZM9.82793 21.0784C9.99789 21.2484 10.2284 21.3439 10.4688 21.3439C10.6095 21.3439 10.7482 21.3111 10.8741 21.2482L21.7491 15.8107C21.8997 15.7355 22.0263 15.6198 22.1148 15.4766C22.2033 15.3334 22.2502 15.1684 22.2502 15.0001C22.2502 14.8318 22.2033 14.6668 22.1148 14.5236C22.0263 14.3804 21.8997 14.2647 21.7491 14.1895L10.8741 8.75197C10.7359 8.68286 10.5824 8.65023 10.4281 8.65716C10.2737 8.6641 10.1237 8.71038 9.9923 8.7916C9.86088 8.87283 9.75241 8.9863 9.67718 9.12124C9.60196 9.25618 9.56248 9.40811 9.5625 9.56261V20.4376C9.5625 20.678 9.65798 20.9085 9.82793 21.0784ZM11.375 18.9714V11.0288L19.3176 15.0001L11.375 18.9714Z" />
  </g>
</svg>
