<svg width="40" height="40" viewBox="0 0 40 40" xmlns="http://www.w3.org/2000/svg">
<g id="dns-services">
<path id="Vector" fill-rule="evenodd" clip-rule="evenodd" d="M37.5002 19.9999V21.2499H15.0326C15.1036 26.137 16.5842 30.8997 19.2965 34.9657C19.3782 34.9695 19.4595 34.9748 19.5407 34.9801C19.6931 34.99 19.8453 34.9999 20.0002 34.9999C21.166 35.0005 22.328 34.8657 23.4627 34.5982L24.0377 37.0311C20.5048 37.8661 16.7995 37.5806 13.4362 36.2143C10.0728 34.8481 7.21815 32.4687 5.26834 29.4065C3.31853 26.3443 2.37028 22.7511 2.55517 19.1255C2.74006 15.5 4.04893 12.0219 6.30013 9.17387C8.55134 6.3259 11.6332 4.2493 15.1181 3.23226C18.603 2.21521 22.3181 2.30816 25.7478 3.49821C29.1775 4.68826 32.1516 6.91639 34.2576 9.87338C36.3636 12.8304 37.4969 16.3696 37.5002 19.9999ZM27.4691 18.7499H34.9483C34.6872 15.6962 33.4987 12.7954 31.5422 10.4364C29.5856 8.07738 26.9547 6.37293 24.002 5.55161C26.1444 9.63086 27.3301 14.1443 27.4691 18.7499ZM24.9678 18.7499C24.8969 13.8627 23.4163 9.10001 20.704 5.03398C20.6222 5.0302 20.5409 5.02492 20.4597 5.01964C20.3073 5.00974 20.1551 4.99986 20.0002 4.99986C19.8453 4.99986 19.6931 5.00974 19.5408 5.01964C19.4595 5.02492 19.3782 5.0302 19.2965 5.03398C16.5842 9.10001 15.1036 13.8627 15.0326 18.7499H24.9678ZM12.5313 18.7499C12.6704 14.1443 13.856 9.63086 15.9985 5.55161C13.0458 6.37293 10.4148 8.07738 8.45827 10.4364C6.50175 12.7954 5.31324 15.6962 5.0521 18.7499H12.5313ZM8.45827 29.5633C10.4148 31.9223 13.0458 33.6268 15.9985 34.4481C13.856 30.3688 12.6704 25.8554 12.5313 21.2499H5.0521C5.31324 24.3035 6.50175 27.2043 8.45827 29.5633ZM37.5002 24.9998H25.0002V27.4998H37.5002V24.9998ZM32.5002 30.0002H25.0002V32.5002H32.5002V30.0002Z" fill="white"/>
</g>
</svg>
