<svg width="15" height="14" viewBox="0 0 15 14" fill="none" xmlns="http://www.w3.org/2000/svg">
<g id="star" clip-path="url(#clip0_1651_1631)">
<path id="Vector" d="M7.59991 2.8525L8.80741 5.29375L9.00866 5.73125L9.44616 5.79688L12.1412 6.18625L10.2249 8.0675L9.89679 8.38688L9.97554 8.82438L10.4349 11.5062L8.02429 10.2419L7.59991 10.0625L7.19304 10.2769L4.78241 11.5238L5.21991 8.84187L5.29866 8.40437L4.97491 8.0675L3.04116 6.16438L5.73616 5.775L6.17366 5.70937L6.37491 5.27187L7.59991 2.8525ZM7.59991 0.875L5.60929 4.90875L1.15991 5.55187L4.37991 8.69313L3.61866 13.125L7.59991 11.0337L11.5812 13.125L10.8199 8.69313L14.0399 5.55625L9.59054 4.90875L7.59991 0.875Z" />
</g>
<defs>
<clipPath id="clip0_1651_1631">
<rect width="14" height="14" transform="translate(0.600098)"/>
</clipPath>
</defs>
</svg>
