<svg width="20" height="20" viewBox="0 0 20 20" fill="none" xmlns="http://www.w3.org/2000/svg">
  <g id="timer">
    <path id="Vector" fill-rule="evenodd" clip-rule="evenodd" d="M11.8742 1.25012H8.12421V2.50012H11.8742V1.25012ZM10.6238 6.87524H9.37384V12.5002H10.6238V6.87524ZM16.6109 4.7437L17.4984 5.62495L15.9422 7.1812C16.8281 8.70023 17.0947 10.5022 16.6866 12.2127C16.2785 13.9231 15.2271 15.4106 13.7508 16.3661C12.2745 17.3215 10.4869 17.6714 8.75931 17.3431C7.03174 17.0149 5.49706 16.0336 4.47414 14.6033C3.45122 13.1729 3.01871 11.4034 3.26647 9.66248C3.51423 7.92154 4.42321 6.34298 5.80456 5.25479C7.1859 4.1666 8.93339 3.65244 10.684 3.81914C12.4345 3.98584 14.0536 4.82059 15.2047 6.14995L16.6109 4.7437ZM6.87335 15.302C7.79838 15.92 8.88592 16.2499 9.99844 16.2499C11.4903 16.2499 12.921 15.6573 13.9759 14.6024C15.0308 13.5475 15.6234 12.1168 15.6234 10.6249C15.6234 9.51243 15.2935 8.42489 14.6755 7.49987C14.0574 6.57484 13.1789 5.85387 12.151 5.42813C11.1232 5.00238 9.9922 4.89099 8.90105 5.10803C7.80991 5.32507 6.80763 5.8608 6.02096 6.64747C5.23429 7.43414 4.69856 8.43642 4.48152 9.52757C4.26448 10.6187 4.37587 11.7497 4.80161 12.7775C5.22736 13.8054 5.94833 14.6839 6.87335 15.302Z"/>
  </g>
</svg>
