<svg width="100%" height="100%" viewBox="0 0 430 113" fill="none" xmlns="http://www.w3.org/2000/svg" preserveAspectRatio="none">
  <path d="M214.005 0C206.637 0 199.78 2.19388 194.053 5.96448C177.446 16.8971 161.537 36.3753 141.655 36.3753H-10V466H440V36.3753H286.355C266.473 36.3753 250.564 16.8971 233.957 5.96447C228.23 2.19387 221.373 0 214.005 0Z" fill="white"/>
  <path d="M194.328 6.38211C199.976 2.66358 206.737 0.5 214.005 0.5C221.273 0.5 228.034 2.66357 233.682 6.3821C237.811 9.09999 241.901 12.3528 246.039 15.7163C246.639 16.204 247.24 16.6941 247.842 17.1851C251.386 20.0755 254.972 22.9998 258.633 25.6734C267.193 31.9253 276.25 36.8753 286.355 36.8753H439.5V465.5H-9.5V36.8753H141.655C151.76 36.8753 160.817 31.9253 169.377 25.6734C173.038 22.9998 176.623 20.0756 180.168 17.1852C180.77 16.6942 181.371 16.2041 181.971 15.7164C186.108 12.3528 190.199 9.10001 194.328 6.38211Z" stroke="black"/>
</svg>
