<svg width="381" height="124" viewBox="0 0 381 124" fill="none" xmlns="http://www.w3.org/2000/svg">
<g clip-path="url(#clip0_2254_3856)">
<path d="M59.3754 20.4429C65.0374 20.4429 69.6274 15.7912 69.6274 10.0532C69.6274 4.31509 65.0374 -0.336548 59.3754 -0.336548C53.7134 -0.336548 49.1234 4.31509 49.1234 10.0532C49.1234 15.7912 53.7134 20.4429 59.3754 20.4429Z" fill="white"/>
<path d="M59.3754 124.388C65.0374 124.388 69.6274 119.737 69.6274 113.998C69.6274 108.26 65.0374 103.609 59.3754 103.609C53.7134 103.609 49.1234 108.26 49.1234 113.998C49.1234 119.737 53.7134 124.388 59.3754 124.388Z" fill="white"/>
<path d="M10.5839 45.6373C16.2459 45.6373 20.8359 40.9857 20.8359 35.2476C20.8359 29.5095 16.2459 24.8579 10.5839 24.8579C4.92184 24.8579 0.331854 29.5095 0.331854 35.2476C0.331854 40.9857 4.92184 45.6373 10.5839 45.6373Z" fill="white"/>
<path d="M108.167 45.6373C113.829 45.6373 118.419 40.9857 118.419 35.2476C118.419 29.5095 113.829 24.8579 108.167 24.8579C102.505 24.8579 97.9148 29.5095 97.9148 35.2476C97.9148 40.9857 102.505 45.6373 108.167 45.6373Z" fill="white"/>
<path d="M10.5839 99.1917C16.2459 99.1917 20.8359 94.54 20.8359 88.8019C20.8359 83.0639 16.2459 78.4122 10.5839 78.4122C4.92184 78.4122 0.331854 83.0639 0.331854 88.8019C0.331854 94.54 4.92184 99.1917 10.5839 99.1917Z" fill="white"/>
<path d="M108.167 99.1911C113.829 99.1911 118.419 94.5394 118.419 88.8013C118.419 83.0633 113.829 78.4116 108.167 78.4116C102.505 78.4116 97.9148 83.0633 97.9148 88.8013C97.9148 94.5394 102.505 99.1911 108.167 99.1911Z" fill="white"/>
<path d="M262.584 62.0247C262.584 26.1398 287.68 -0.337402 321.541 -0.337402C355.403 -0.337402 380.671 26.1398 380.671 62.0247C380.671 97.9097 355.403 124.387 321.541 124.387C287.68 124.387 262.584 97.9097 262.584 62.0247ZM365.545 62.0247C365.545 33.9787 346.809 13.0759 321.542 13.0759C296.275 13.0759 277.711 33.9798 277.711 62.0247C277.711 90.0697 296.275 110.974 321.542 110.974C346.809 110.974 365.545 90.0697 365.545 62.0247Z" fill="white"/>
<path d="M119.628 112.279C121.584 116.533 123.903 120.577 126.543 124.381C167.565 100.516 216.146 102.153 254.455 124.387C257.095 120.583 259.416 116.535 261.373 112.279C223.2 89.7732 197.5 47.9385 197.384 -0.0138908C195.115 -0.215049 192.823 -0.337402 190.501 -0.337402C188.18 -0.337402 185.888 -0.215049 183.618 -0.0138908C183.503 47.9395 157.802 89.7732 119.629 112.279H119.628Z" fill="white"/>
</g>
<defs>
<clipPath id="clip0_2254_3856">
<rect width="381" height="124" fill="white"/>
</clipPath>
</defs>
</svg>
